HIERARCHY
ROOT Hips
{
 OFFSET 0.000000 0.000000 0.000000
 CHANNELS 6 Xposition Yposition Zposition Yrotation Xrotation Zrotation
 JOINT Chest
 {
  OFFSET 0.000000 9.588913 -0.003946
  CHANNELS 3 Yrotation Xrotation Zrotation
  JOINT Chest2
  {
   OFFSET 0.000000 9.541882 0.008053
   CHANNELS 3 Yrotation Xrotation Zrotation
   JOINT Chest3
   {
    OFFSET 0.000000 9.501360 0.000000
    CHANNELS 3 Yrotation Xrotation Zrotation
    JOINT Chest4
    {
     OFFSET 0.000000 9.491660 0.000000
     CHANNELS 3 Yrotation Xrotation Zrotation
     JOINT Neck
     {
      OFFSET 0.000000 14.331917 0.000000
      CHANNELS 3 Yrotation Xrotation Zrotation
      JOINT Head
      {
       OFFSET 0.000000 8.884799 0.017034
       CHANNELS 3 Yrotation Xrotation Zrotation
       End Site
       {
        OFFSET 0.000000 16.896195 0.008993
       }
      }
     }
     JOINT RightCollar
     {
      OFFSET -2.923010 9.499495 0.000000
      CHANNELS 3 Yrotation Xrotation Zrotation
      JOINT RightShoulder
      {
       OFFSET -13.795216 0.000000 0.000000
       CHANNELS 3 Yrotation Xrotation Zrotation
       JOINT RightElbow
       {
        OFFSET -30.272209 0.000000 0.000000
        CHANNELS 3 Yrotation Xrotation Zrotation
        JOINT RightWrist
        {
         OFFSET -24.478199 0.000000 0.000000
         CHANNELS 3 Yrotation Xrotation Zrotation
         End Site
         {
          OFFSET -18.090752 0.000000 0.000000
         }
        }
       }
      }
     }
     JOINT LeftCollar
     {
      OFFSET 2.923010 9.499495 0.000000
      CHANNELS 3 Yrotation Xrotation Zrotation
      JOINT LeftShoulder
      {
       OFFSET 13.795216 0.000000 0.000000
       CHANNELS 3 Yrotation Xrotation Zrotation
       JOINT LeftElbow
       {
        OFFSET 30.272209 0.000000 0.000000
        CHANNELS 3 Yrotation Xrotation Zrotation
        JOINT LeftWrist
        {
         OFFSET 24.478199 0.000000 0.000000
         CHANNELS 3 Yrotation Xrotation Zrotation
         End Site
         {
          OFFSET 18.090752 0.000000 0.000000
         }
        }
       }
      }
     }
    }
   }
  }
 }
 JOINT RightHip
 {
  OFFSET -7.826875 0.019532 0.001973
  CHANNELS 3 Yrotation Xrotation Zrotation
  JOINT RightKnee
  {
   OFFSET 0.000000 -40.546152 -0.001885
   CHANNELS 3 Yrotation Xrotation Zrotation
   JOINT RightAnkle
   {
    OFFSET 0.000000 -39.417092 -0.003189
    CHANNELS 3 Yrotation Xrotation Zrotation
    JOINT RightToe
    {
     OFFSET 0.000000 -7.579396 17.243563
     CHANNELS 3 Yrotation Xrotation Zrotation
     End Site
     {
      OFFSET 0.000000 -1.500329 6.694466
     }
    }
   }
  }
 }
 JOINT LeftHip
 {
  OFFSET 7.826875 0.019532 0.001973
  CHANNELS 3 Yrotation Xrotation Zrotation
  JOINT LeftKnee
  {
   OFFSET 0.000000 -40.546152 -0.001885
   CHANNELS 3 Yrotation Xrotation Zrotation
   JOINT LeftAnkle
   {
    OFFSET 0.000000 -39.417092 -0.003189
    CHANNELS 3 Yrotation Xrotation Zrotation
    JOINT LeftToe
    {
     OFFSET 0.000000 -7.579396 17.243563
     CHANNELS 3 Yrotation Xrotation Zrotation
     End Site
     {
      OFFSET 0.000000 -1.500329 6.694466
     }
    }
   }
  }
 }
}
MOTION
Frames: 12
Frame Time: 0.008333
-33.869170 88.815289 -42.931669 76.352154 -5.057106 2.864006 2.078084 5.662493 -0.623225 1.172937 3.230026 -0.352412 1.463642 4.038604 -0.430328 1.172937 3.230028 -0.352412 25.630177 21.025888 -2.484613 32.578304 0.368166 -9.123941 -0.373667 -1.929176 -0.863533 -5.616159 0.019078 86.777468 10.465962 0.878780 0.345024 -3.743389 -2.408110 -0.619252 -5.035483 -1.563091 -0.387783 3.162839 -2.959640 -87.706120 -7.593405 1.809313 -2.987871 0.905805 0.282900 -0.779150 -11.198397 -12.501900 -10.241619 -0.348499 12.971553 -1.824436 -5.681547 -8.419911 9.118202 -0.080219 -1.722704 0.145093 -14.046989 10.664328 -4.332968 0.981221 1.312935 -1.859814 -3.871555 -6.993030 0.593768 0.033609 0.464739 0.066188
-34.084831 88.857327 -43.136007 76.253405 -5.142562 2.705242 2.029931 5.673490 -0.581880 1.147555 3.240307 -0.336526 1.432037 4.051383 -0.410656 1.147556 3.240309 -0.336526 25.643879 21.028968 -2.428672 32.579987 0.366985 -9.057289 -0.375656 -1.926354 -0.849948 -5.389870 -0.158162 86.874350 10.291697 0.968208 0.255394 -3.790686 -2.366915 -0.559966 -5.026048 -1.557047 -0.329686 3.337828 -2.795333 -87.690870 -7.155187 1.842663 -2.752069 0.922025 0.297423 -0.772768 -11.258281 -12.508588 -10.008204 -0.307232 14.411025 -1.705160 -5.736546 -8.715545 9.090062 -0.061249 -2.118425 0.070708 -13.997232 10.552800 -4.272487 1.020272 1.389461 -1.850448 -3.822803 -6.846815 0.648816 0.032252 0.424716 0.053903
-34.293752 88.895779 -43.331338 76.174397 -5.241610 2.552543 1.973620 5.686660 -0.548293 1.117829 3.250932 -0.323859 1.394971 4.064601 -0.395048 1.117830 3.250934 -0.323859 25.661366 21.028127 -2.358486 32.582783 0.359538 -8.974095 -0.384692 -1.929355 -0.839064 -5.190737 -0.333206 86.998733 10.093296 1.047800 0.151067 -3.848977 -2.336006 -0.512470 -5.020151 -1.555724 -0.271548 3.495323 -2.619268 -87.661935 -6.703514 1.874093 -2.510285 0.944269 0.315048 -0.777449 -11.276422 -12.456315 -9.800651 -0.290525 15.864642 -1.560977 -5.769410 -9.009106 9.078216 -0.040553 -2.482307 -0.008931 -13.976547 10.463198 -4.222416 1.061683 1.452011 -1.834019 -3.772765 -6.703996 0.697894 0.030198 0.391860 0.042105
-34.496663 88.930046 -43.519857 76.107995 -5.352868 2.412069 1.912652 5.700818 -0.523473 1.085370 3.261750 -0.315253 1.354452 4.078073 -0.384545 1.085371 3.261753 -0.315254 25.681532 21.023441 -2.276622 32.585909 0.346054 -8.877292 -0.398970 -1.930739 -0.830420 -5.031585 -0.506927 87.141405 9.882923 1.111508 0.047726 -3.910768 -2.316009 -0.476260 -5.015395 -1.557792 -0.218201 3.623257 -2.439205 -87.611253 -6.235538 1.901697 -2.263889 0.973548 0.334371 -0.793240 -11.257089 -12.352299 -9.619365 -0.307511 17.324777 -1.403163 -5.757757 -9.304821 9.076360 -0.018413 -2.811563 -0.086562 -13.963660 10.396214 -4.183579 1.095808 1.496056 -1.817476 -3.724635 -6.560946 0.743063 0.027782 0.365270 0.032856
-34.694694 88.959764 -43.703287 76.047354 -5.471715 2.287694 1.850197 5.714478 -0.508272 1.051583 3.272072 -0.311481 1.312229 4.090938 -0.380099 1.051584 3.272075 -0.311481 25.702981 21.014947 -2.186338 32.588377 0.326742 -8.770605 -0.415064 -1.924410 -0.822447 -4.914532 -0.678806 87.294013 9.672046 1.150896 -0.041650 -3.967416 -2.310523 -0.451999 -5.009155 -1.561496 -0.171840 3.722952 -2.261711 -87.532964 -5.749732 1.930400 -2.013033 1.007069 0.360699 -0.820870 -11.218952 -12.206890 -9.460197 -0.362732 18.780824 -1.241643 -5.682366 -9.604102 9.080844 0.006379 -3.104340 -0.161371 -13.947163 10.346406 -4.156209 1.116486 1.522154 -1.806397 -3.673593 -6.416976 0.785970 0.024996 0.344169 0.027468
-34.888870 88.984792 -43.882942 75.986107 -5.593142 2.181782 1.789208 5.728011 -0.503869 1.018176 3.281511 -0.312380 1.270440 4.102714 -0.381498 1.018177 3.281514 -0.312380 25.724792 21.002628 -2.092384 32.590401 0.302096 -8.659736 -0.433594 -1.910910 -0.815186 -4.830056 -0.848605 87.454884 9.465564 1.155527 -0.115224 -4.011881 -2.317318 -0.440952 -5.000129 -1.568169 -0.134453 3.800747 -2.089191 -87.426902 -5.248078 1.968566 -1.755413 1.043246 0.398275 -0.857241 -11.180838 -12.029248 -9.315704 -0.446410 20.221802 -1.084012 -5.554517 -9.907142 9.092518 0.033816 -3.359298 -0.235613 -13.924947 10.303852 -4.142217 1.122402 1.538440 -1.801459 -3.613491 -6.275278 0.827601 0.022015 0.327642 0.025417
-35.080398 89.005134 -44.060199 75.921960 -5.709643 2.096853 1.731682 5.739381 -0.511927 0.986423 3.288779 -0.317504 1.230682 4.111788 -0.388172 0.986423 3.288782 -0.317505 25.746925 20.986832 -1.998148 32.593032 0.273088 -8.548872 -0.456817 -1.892508 -0.808445 -4.768048 -1.010910 87.625892 9.268582 1.120194 -0.178378 -4.040284 -2.330993 -0.442352 -4.988944 -1.576275 -0.106117 3.863057 -1.925578 -87.297584 -4.732698 2.024455 -1.490977 1.083628 0.441639 -0.895056 -11.153537 -11.826937 -9.175586 -0.545959 21.633641 -0.940503 -5.417951 -10.212209 9.116605 0.061540 -3.574285 -0.309951 -13.901631 10.256347 -4.144071 1.117922 1.550673 -1.802042 -3.543321 -6.136645 0.870514 0.019213 0.314656 0.024376
-35.270598 89.020878 -44.235876 75.855826 -5.812474 2.032043 1.677219 5.743792 -0.531451 0.956880 3.292227 -0.326441 1.193656 4.116098 -0.399604 0.956880 3.292230 -0.326441 25.769757 20.968317 -1.905986 32.597579 0.241163 -8.440983 -0.483138 -1.868298 -0.802935 -4.724548 -1.160490 87.810776 9.086467 1.051317 -0.236893 -4.049204 -2.351791 -0.453990 -4.975985 -1.582523 -0.084507 3.919736 -1.775006 -87.152032 -4.204757 2.103272 -1.219117 1.129423 0.485861 -0.929778 -11.142431 -11.599957 -9.034272 -0.658783 22.984413 -0.816895 -5.298946 -10.482463 9.153870 0.090671 -3.771457 -0.380399 -13.886280 10.191134 -4.161711 1.106411 1.560419 -1.804994 -3.460345 -5.980484 0.915777 0.016481 0.287049 0.021895
-35.458871 89.032383 -44.409576 75.780829 -5.904176 1.983527 1.630774 5.743551 -0.559088 0.930536 3.292233 -0.337908 1.160608 4.116112 -0.414182 0.930536 3.292236 -0.337909 25.792519 20.947981 -1.819214 32.603943 0.207774 -8.339940 -0.511140 -1.840912 -0.799141 -4.694408 -1.294106 88.007747 8.919725 0.957394 -0.294201 -4.039763 -2.375932 -0.475376 -4.965059 -1.587891 -0.069194 3.977899 -1.634357 -86.996534 -3.668773 2.195398 -0.939273 1.177244 0.533125 -0.961080 -11.143264 -11.359301 -8.890485 -0.787148 24.308227 -0.717172 -5.203274 -10.787091 9.205513 0.113628 -3.909730 -0.441779 -13.883255 10.113104 -4.191855 1.094224 1.573184 -1.813227 -3.362106 -5.850601 0.965402 0.013932 0.281526 0.018185
-35.644947 89.040045 -44.580702 75.695139 -5.984538 1.946087 1.592818 5.738502 -0.590887 0.908863 3.289398 -0.350272 1.133397 4.112580 -0.429844 0.908863 3.289400 -0.350272 25.813034 20.926971 -1.740192 32.609583 0.174165 -8.248065 -0.540851 -1.817807 -0.794668 -4.671458 -1.405566 88.204561 8.767526 0.843174 -0.349727 -4.019620 -2.396169 -0.503187 -4.961618 -1.595858 -0.061397 4.041331 -1.498959 -86.838504 -3.129378 2.286534 -0.650808 1.222177 0.580979 -0.987652 -11.161178 -11.098376 -8.741566 -0.926209 25.579654 -0.637379 -5.144625 -11.082901 9.254518 0.130702 -4.018093 -0.480688 -13.895933 10.022009 -4.230000 1.090050 1.588799 -1.825714 -3.251495 -5.728153 1.017086 0.011702 0.280281 0.014467
-35.828763 89.044318 -44.748797 75.599271 -6.050881 1.915746 1.563986 5.727524 -0.624045 0.892236 3.282677 -0.362623 1.112498 4.104194 -0.445456 0.892235 3.282679 -0.362624 25.830480 20.907448 -1.668255 32.612941 0.142789 -8.164170 -0.570209 -1.800897 -0.788750 -4.651144 -1.488641 88.389474 8.629203 0.713560 -0.401477 -3.996217 -2.412498 -0.529801 -4.966260 -1.604358 -0.059764 4.117386 -1.369727 -86.687596 -2.588306 2.368962 -0.353696 1.262475 0.625615 -1.005572 -11.197550 -10.822527 -8.585506 -1.075297 26.799526 -0.573321 -5.140318 -11.366391 9.282727 0.139181 -4.100477 -0.484380 -13.918275 9.917837 -4.271484 1.099740 1.605686 -1.839233 -3.139230 -5.614045 1.066483 0.009926 0.284034 0.012595
-36.009208 89.045856 -44.913310 75.493901 -6.106048 1.890580 1.543391 5.710530 -0.656908 0.880022 3.272000 -0.374958 1.097122 4.090865 -0.461014 0.880022 3.272001 -0.374959 25.846815 20.891304 -1.601899 32.616350 0.116365 -8.086718 -0.596949 -1.788858 -0.782796 -4.631450 -1.541606 88.557403 8.501095 0.580248 -0.446982 -3.975862 -2.428524 -0.551747 -4.974370 -1.608828 -0.060942 4.211438 -1.247704 -86.552749 -2.050846 2.435683 -0.049220 1.300954 0.666731 -1.013939 -11.255839 -10.528131 -8.423118 -1.240771 27.962563 -0.527070 -5.191331 -11.636320 9.276278 0.137888 -4.157262 -0.445260 -13.939568 9.806271 -4.313945 1.124299 1.622560 -1.852455 -3.034516 -5.508511 1.111095 0.008599 0.291701 0.013823
